# xmcd CD database file
#
# Track frame offsets:
#	150
#	18107
#	39964
#	61815
#	81460
#	104050
#	119775
#	151630
#	170855
#	188290
#
# Disc length: 2824 seconds
#
# Revision: 0
# Processed by: cddbd v1.5.1PL0 Copyright (c) Steve Scherf et al.
# Submitted via: cdripper 1.0.10
#
DISCID=790b060a
DTITLE=The Ronnie Douglas Blues Band - Big Borther
DYEAR=2001
DGENRE=Blues
TTITLE0=On My Way
TTITLE1=You Don't Know
TTITLE2=Don't You Know?
TTITLE3=Big Brother
TTITLE4=Foolish
TTITLE5=Highway 44
TTITLE6=Good Time Baby
TTITLE7=Why Am I Drinkin'?
TTITLE8=Blow Wind Blow
TTITLE9=Whose Been Talking?
EXTD=YEAR: 2001
EXTT0=
EXTT1=
EXTT2=
EXTT3=
EXTT4=
EXTT5=
EXTT6=
EXTT7=
EXTT8=
EXTT9=
PLAYORDER=
